<svg version="1.2" xmlns="http://www.w3.org/2000/svg" viewBox="0 0 1024 1024" width="1024" height="1024">
	<style>
		.s0 { opacity: .99;fill: #fefefd } 
		.s1 { opacity: .97;fill: #666869 } 
		.s2 { opacity: .99;fill: #5e6060 } 
		.s3 { opacity: .99;fill: #727475 } 
		.s4 { opacity: .99;fill: #515357 } 
		.s5 { opacity: .86;fill: #5d6061 } 
		.s6 { opacity: .67;fill: #606262 } 
		.s7 { opacity: .78;fill: #6f7071 } 
		.s8 { opacity: .99;fill: #919497 } 
		.s9 { opacity: .83;fill: #818282 } 
		.s10 { opacity: .2;fill: #959297 } 
		.s11 { opacity: .99;fill: #d5d5d6 } 
		.s12 { opacity: .51;fill: #8c8e8f } 
	</style>
	<g id="Background">
		<path id="Path 0" fill-rule="evenodd" class="s0" d="m520.5 161.5l4.42 4.5c2.43 2.47 14.55 15.75 26.93 29.5 12.38 13.75 26.64 29.5 31.67 35 5.04 5.5 13.95 15.4 30.46 34l0.02 554.5h24v-191.5c0-152.72 0.25-191.43 1.25-191.15 0.69 0.19 16.33 9.35 34.75 20.35 18.42 10.99 39.8 23.7 47.5 28.22 7.7 4.53 17.49 10.34 29.5 17.58v316.5h42v37h-583v-37h45l0.5-260.45 16.66-10.03c9.17-5.51 21.99-13.14 28.5-16.96 6.51-3.81 16-9.55 30.34-18.56v306h24v-428l12.25-8.18c6.74-4.5 21.02-14.1 31.75-21.33 10.73-7.23 30.07-20.3 43-29.03 12.93-8.73 28.45-19.17 45.5-30.52l0.5 517.06h22v-568l-3.25 2.21c-1.79 1.21-11.57 8.25-21.75 15.64-10.18 7.39-20.75 15.09-23.5 17.12-2.75 2.03-13.77 10-24.5 17.7-10.73 7.71-20.06 14.31-20.75 14.67-0.99 0.52-1.24-4.9-1.2-51.84zm23 232.71c18.6 9.99 28.16 15.12 33.25 17.84l9.25 4.95v-33c-32.07-18.21-41.7-23.65-42.1-23.84-0.39-0.19-0.65 7.39-0.56 16.85zm-102.23-5.07l-10.33 6.37 0.06 42.5c5.04-2.58 10.21-5.5 14.75-8.16l8.25-4.84c0-34.1-0.2-44-0.45-44-0.25 0-0.79 0.39-1.2 0.88-0.41 0.48-5.4 3.74-11.08 7.25zm-57.52 32.9c-0.41-0.02-0.75 9.42-0.75 20.97 0 11.55 0.23 21 0.5 21 0.28 0 3.99-2.15 8.25-4.77 4.26-2.62 9.23-5.43 11.04-6.25l3.29-1.48c-0.06-32.94-0.19-42.48-0.33-42.44-0.14 0.04-4.97 2.98-10.75 6.54-5.77 3.55-10.84 6.45-11.25 6.43zm159.25 45.97c9.69 5.21 18.8 10 26.5 14 7.7 4 14.58 7.77 15.3 8.38 1.05 0.91 1.28-2.18 1.21-16.55l-0.08-17.66c-26.68-14.32-36.27-19.57-38.52-20.92l-4.09-2.44zm-107.25 3.35l-4.75 2.65v44l22.5-12.75c0.42-34.3 0.19-44.22-0.23-44.17-0.42 0.05-3.47 1.78-6.77 3.85-3.3 2.08-8.13 4.96-10.75 6.42zm-53.13 29.78c0.37 40.43 0.5 41.82 2.13 41.16 0.97-0.38 5.35-2.86 9.75-5.51 4.4-2.64 8.68-5.19 9.5-5.65 1.25-0.71 1.55-4.44 1.77-21.99 0.15-11.63-0.08-21.13-0.5-21.11-0.42 0.02-5.69 2.97-11.71 6.57zm285.38 49.86c14.34 7.71 18.84 9.96 19.25 9.97 0.42 0.02 0.75-9.76 0.74-21.72l-0.01-21.75-20.19-11.37zm-124.5-8.87l42.5 21.87v-34c-23.64-12.37-33.33-17.55-36.79-19.48l-6.29-3.53zm164.47 29.38c6.61 3.39 10.89 5.75 13.78 7.44l5.25 3.06-0.5-43.2c-13.95-7.65-18.11-9.85-18.25-9.84-0.14 0.02-0.26 9.6-0.27 21.29zm-276.89-18c-0.07 42.02 0.04 43.46 1.68 42.92 0.96-0.31 6.13-3.01 11.5-6l9.75-5.42c0-34.1-0.12-43.98-0.25-43.95-0.14 0.03-5.3 2.84-11.47 6.25zm-41.07 20.78l-6.5 3.5c-0.39 32.72-0.16 42.23 0.25 42.24 0.41 0.02 3.9-1.67 7.75-3.75 3.86-2.07 8.7-4.67 10.76-5.77l3.75-2c-0.01-32.94-0.35-42.5-0.76-42.49-0.41 0-2.55 1.08-4.75 2.39-2.2 1.31-6.93 3.96-10.5 5.88zm153.5 43.22c31.77 15.79 41.34 20.4 41.75 20.44 0.41 0.03 0.75-7.7 0.75-17.19 0-15.36-0.19-17.37-1.75-18.36-0.96-0.61-10.3-5.66-20.75-11.23-10.45-5.56-19.35-10.13-19.77-10.14-0.43-0.01-0.65 8.19-0.5 18.23zm-259.44-20l-0.06 44.5 19.98-10.5c0.01-35.26-0.1-45.45-0.23-45.39-0.14 0.06-4.63 2.64-9.97 5.75zm383.93 36.5l20 10-0.01-45.5-19.76-10.64zm40.5 19.19l18.5 9.81-0.43-44.64-18.91-10.2zm-277.46-19.69l-0.04 43.5 22.5-11.1c0.41-34.02 0.19-43.86-0.23-43.82-0.42 0.05-5.6 2.63-11.5 5.75zm-48 23l-0.04 42.5 22.5-11.1c0.41-33.25 0.19-42.86-0.23-42.82-0.42 0.05-5.6 2.63-11.5 5.75zm159.96 35.5c18.98 8.91 28.65 13.53 33.73 16l9.24 4.5 0.03-35c-32.16-16.27-41.78-21.15-42.13-21.33-0.35-0.18-0.69 7.8-0.75 17.75zm-259.37-16.82l0.37 44.82 20-10c0-34.88-0.34-44.98-0.75-44.96-0.41 0.02-5 2.31-10.19 5.09zm384.39 41.32l19.93 10 0.3-46.06-20-10.59zm39.98 19.5c5.82 2.65 9.64 4.67 12.25 6.21 2.62 1.54 5.09 2.79 5.5 2.79 0.42 0.01 0.87-10.12 1-22.5l0.25-22.5c-5.03-2.89-9.08-5.14-12.25-6.86-3.16-1.73-5.97-3.14-6.25-3.14-0.27 0-0.5 10.35-0.5 23zm-277.19-23.06l0.19 105.06h23c0-89.9-0.11-116-0.25-116-0.13 0-5.35 2.46-11.59 5.47zm-47.75 21.56l-0.06 83.5h23c0-72.85-0.34-93.96-0.75-93.91-0.41 0.05-5.58 2.41-11.47 5.25zm-98.56 19c-0.39 33.71-0.28 43.5 0 43.5 0.27 0 4.78-2.14 10.01-4.75l9.51-4.75c-0.02-33.71-0.36-43.48-0.77-43.46-0.41 0.02-4.8 2.15-9.75 4.75z"/>
		<path id="Path 1" class="s1" d="m614.43 352c0 13.48 0.14 18.88 0.32 12 0.17-6.88 0.17-17.9 0-24.5-0.18-6.6-0.32-0.98-0.32 12.5zm-0.03 40.5c0.01 8.8 0.16 12.18 0.34 7.5 0.19-4.68 0.19-11.88 0-16-0.18-4.13-0.34-0.3-0.34 8.5zm-282.99 137c0 9.35 0.15 13.4 0.33 9 0.19-4.4 0.19-12.05 0.01-17-0.19-4.95-0.34-1.35-0.34 8zm461.94 298c0 4.95 0.17 7.2 0.38 5 0.21-2.2 0.21-6.25 0.01-9-0.21-2.75-0.38-0.95-0.39 4zm-583.89 13.75l0.04 15.25h20.5l-20-0.5-0.58-30zm102.04 15.49c4.95 0.19 13.28 0.19 18.5 0 5.23-0.18 1.18-0.33-9-0.33-10.17 0-14.45 0.15-9.5 0.33zm229.5-0.01c2.48 0.21 6.75 0.21 9.5 0 2.75-0.2 0.73-0.37-4.5-0.37-5.22 0-7.47 0.17-5 0.37zm81 0.02c7.43 0.17 19.8 0.17 27.5 0 7.7-0.17 1.63-0.31-13.5-0.31-15.12 0-21.42 0.14-14 0.31zm96-0.01c3.58 0.2 8.98 0.19 12 0 3.03-0.2 0.1-0.36-6.5-0.36-6.6 0-9.07 0.16-5.5 0.36zm41.5 0c3.3 0.19 8.93 0.19 12.5 0 3.58-0.2 0.88-0.36-6-0.36-6.87 0-9.8 0.16-6.5 0.36z"/>
		<path id="Path 2" class="s2" d="m509.34 334c0 4.13 0.17 5.93 0.39 4 0.21-1.93 0.21-5.3 0-7.5-0.22-2.2-0.39-0.63-0.39 3.5zm0.04 39c0 6.32 0.16 8.8 0.36 5.5 0.2-3.3 0.2-8.48 0-11.5-0.2-3.02-0.36-0.32-0.36 6zm-0.02 26c0 5.23 0.17 7.25 0.38 4.5 0.2-2.75 0.2-7.02 0-9.5-0.21-2.48-0.38-0.23-0.38 5zm0.1 62.5c0 25.85 0.13 36.65 0.29 24 0.16-12.65 0.16-33.8 0-47-0.16-13.2-0.29-2.85-0.29 23zm105.01 7.5c0 29.43 0.12 41.57 0.28 27 0.16-14.57 0.16-38.65 0-53.5-0.16-14.85-0.28-2.93-0.28 26.5zm-105.08 53.5c0.01 7.7 0.16 10.63 0.35 6.5 0.19-4.13 0.19-10.42 0-14-0.19-3.58-0.35-0.2-0.35 7.5zm105.08 57c0 28.6 0.12 40.08 0.28 25.5 0.16-14.58 0.16-37.98 0-52-0.16-14.02-0.29-2.1-0.28 26.5zm-105.13-22c0.01 4.4 0.18 5.98 0.39 3.5 0.21-2.48 0.21-6.08 0-8-0.22-1.92-0.39 0.1-0.39 4.5zm0.05 30.5c0 7.42 0.16 10.35 0.35 6.5 0.19-3.85 0.19-9.92 0-13.5-0.19-3.58-0.35-0.42-0.35 7zm-0.02 29.5c0.01 6.05 0.17 8.3 0.37 5 0.2-3.3 0.2-8.25 0-11-0.21-2.75-0.37-0.05-0.37 6zm-0.02 54c0 4.95 0.17 7.2 0.38 5 0.21-2.2 0.21-6.25 0.01-9-0.21-2.75-0.38-0.95-0.39 4zm104.98 10c0 3.85 0.18 5.2 0.4 3 0.21-2.2 0.21-5.35-0.01-7-0.22-1.65-0.4 0.15-0.39 4zm-104.93 24.5c0 8.52 0.16 11.9 0.34 7.5 0.19-4.4 0.19-11.38 0-15.5-0.18-4.13-0.34-0.52-0.34 8zm105.03 57c0 14.02 0.15 19.88 0.32 13 0.17-6.88 0.17-18.35 0-25.5-0.17-7.15-0.32-1.52-0.32 12.5zm-0.06 44.5c0 5.5 0.17 7.52 0.37 4.5 0.2-3.02 0.2-7.52-0.01-10-0.2-2.48-0.37 0-0.36 5.5zm-373.87 49.24c3.3 0.2 8.93 0.2 12.5 0 3.58-0.19 0.88-0.35-6-0.35-6.87 0-9.8 0.16-6.5 0.35zm39.5-0.01c2.48 0.21 6.08 0.21 8 0 1.93-0.22-0.1-0.39-4.5-0.39-4.4 0.01-5.98 0.18-3.5 0.39zm82.5 0.02c7.7 0.17 19.85 0.17 27 0 7.15-0.17 0.85-0.31-14-0.31-14.85 0-20.7 0.14-13 0.31zm61.5-0.01c2.48 0.2 6.75 0.2 9.5 0 2.75-0.21 0.73-0.38-4.5-0.38-5.23 0-7.48 0.17-5 0.38zm37 0.01c7.98 0.17 20.58 0.17 28 0 7.43-0.17 0.9-0.31-14.5-0.31-15.4 0-21.48 0.14-13.5 0.31zm51.5 0c4.95 0.18 12.6 0.18 17-0.01 4.4-0.18 0.35-0.33-9-0.33-9.35 0-12.95 0.15-8 0.34zm46.5-0.01c2.48 0.2 6.75 0.2 9.5 0 2.75-0.21 0.73-0.38-4.5-0.38-5.23 0-7.48 0.17-5 0.38zm36 0c2.48 0.2 6.75 0.2 9.5 0 2.75-0.21 0.73-0.38-4.5-0.38-5.23 0-7.48 0.17-5 0.38z"/>
		<path id="Path 3" class="s3" d="m614.44 294.5c0 17.05 0.14 24.25 0.31 16 0.16-8.25 0.17-22.2 0-31-0.17-8.8-0.3-2.05-0.31 15zm-282.95 388c0 71.5 0.11 100.52 0.26 64.5 0.15-36.02 0.15-94.52 0-130-0.15-35.48-0.26-6-0.26 65.5zm22.85 11.5c0 4.13 0.17 5.92 0.39 4 0.21-1.92 0.21-5.3 0-7.5-0.22-2.2-0.39-0.63-0.39 3.5zm0 31c0 4.13 0.17 5.92 0.39 4 0.21-1.92 0.21-5.3 0-7.5-0.22-2.2-0.39-0.63-0.39 3.5zm0.08 54c0 11.27 0.15 15.77 0.33 10 0.17-5.77 0.17-15 0-20.5-0.18-5.5-0.33-0.77-0.33 10.5zm-0.08 31c0 4.13 0.17 5.92 0.39 4 0.21-1.92 0.21-5.3 0-7.5-0.22-2.2-0.39-0.63-0.39 3.5zm438.87 35.75l-0.21 10.25-15.5 0.6c13.16 0.34 15.66 0.02 16.03-0.85 0.29-0.69 0.38-5.52 0.2-10.75l-0.31-9.5zm-122.21 10.99c4.67 0.19 12.77 0.19 18 0.01 5.22-0.19 1.4-0.34-8.5-0.34-9.9 0-14.18 0.15-9.5 0.33zm30.5-0.02c1.65 0.22 4.8 0.22 7 0.01 2.2-0.22 0.85-0.4-3-0.4-3.85-0.01-5.65 0.17-4 0.39z"/>
		<path id="Path 4" class="s4" d="m431.97 248.51c-4.11 4.13-7.25 7.51-6.97 7.51 0.27 0 3.86-3.38 7.97-7.51 4.11-4.13 7.25-7.51 6.98-7.51-0.28 0-3.86 3.38-7.98 7.51zm182.37 407.99c0.01 4.4 0.18 5.98 0.39 3.5 0.21-2.47 0.21-6.08 0-8-0.22-1.92-0.39 0.1-0.39 4.5z"/>
		<path id="Path 5" class="s5" d="m509.42 291.5c0 11 0.15 15.73 0.32 10.5 0.18-5.23 0.18-14.23 0.01-20-0.18-5.77-0.33-1.5-0.33 9.5zm-21.04 58.5c0 6.32 0.16 8.8 0.36 5.5 0.2-3.3 0.2-8.48 0-11.5-0.2-3.02-0.36-0.32-0.36 6zm0.03 49c0 9.63 0.15 13.45 0.33 8.5 0.19-4.95 0.19-12.82 0-17.5-0.18-4.68-0.33-0.63-0.33 9zm0.02 57c0 13.48 0.14 18.88 0.32 12 0.17-6.88 0.17-17.9 0-24.5-0.18-6.6-0.32-0.98-0.32 12.5zm-0.03 210c0 7.98 0.15 11.35 0.34 7.5 0.19-3.85 0.19-10.38 0-14.5-0.19-4.13-0.34-0.98-0.34 7zm0.01 32.5c0 9.35 0.15 13.4 0.33 9 0.19-4.4 0.19-12.05 0.01-17-0.19-4.95-0.34-1.35-0.34 8zm-0.07 41c0.01 4.4 0.18 5.98 0.39 3.5 0.21-2.48 0.21-6.08 0-8-0.22-1.92-0.39 0.1-0.39 4.5z"/>
		<path id="Path 6" class="s6" d="m486.97 193.75l-6.47 6.75c10.48-10.07 13.51-13.11 13.51-13.25-0.01-0.14-0.14-0.25-0.29-0.25-0.15 0-3.19 3.04-6.75 6.75zm-20.99 21l-8.48 8.75c13.57-13.18 17.51-17.11 17.51-17.25-0.01-0.14-0.13-0.25-0.28-0.25-0.15 0-4.09 3.94-8.75 8.75zm-18.01 17.76c-4.11 4.13-7.25 7.51-6.97 7.51 0.27 0 3.86-3.38 7.97-7.51 4.11-4.13 7.25-7.51 6.98-7.51-0.28 0-3.86 3.38-7.98 7.51zm189.52 392.99c0 105.05 0.12 148.25 0.26 96 0.14-52.25 0.14-138.2 0-191-0.14-52.8-0.26-10.05-0.26 95zm-9.99 192.5l-10 0.61c15.47 0.31 19.69-0.02 19.96-0.61 0.26-0.55 0.37-0.91 0.25-0.81-0.11 0.11-4.71 0.47-10.21 0.81zm-407 0.75c6.6 0.17 16.95 0.17 23 0 6.05-0.18 0.65-0.32-12-0.32-12.65 0-17.6 0.14-11 0.32zm546.5-0.01c4.67 0.19 12.77 0.19 18 0.01 5.22-0.19 1.4-0.34-8.5-0.34-9.9 0-14.17 0.15-9.5 0.33z"/>
		<path id="Path 7" class="s7" d="m509.35 264c0 4.68 0.17 6.48 0.38 4 0.21-2.48 0.21-6.3 0-8.5-0.21-2.2-0.38-0.18-0.38 4.5zm-254.86 425c0 71.23 0.11 100.25 0.26 64.5 0.15-35.75 0.15-94.02 0-129.5-0.15-35.48-0.26-6.23-0.26 65zm496.95-63.5c0 17.05 0.14 24.25 0.31 16 0.16-8.25 0.17-22.2 0-31-0.17-8.8-0.3-2.05-0.31 15zm-0.05 50.5c0 6.88 0.16 9.58 0.35 6 0.2-3.58 0.2-9.2 0-12.5-0.19-3.3-0.35-0.38-0.35 6.5zm-414.39 142.74c3.02 0.2 8.2 0.2 11.5 0 3.3-0.2 0.82-0.36-5.5-0.36-6.33 0-9.02 0.16-6 0.36z"/>
		<path id="Path 8" class="s8" d="m492.47 189.25l-6.97 7.25c11.25-10.85 14.51-14.11 14.51-14.25-0.01-0.14-0.13-0.25-0.29-0.25-0.15 0-3.41 3.26-7.25 7.25zm-78.04 107.75c0 12.93 0.14 18.1 0.32 11.5 0.17-6.6 0.17-17.18 0-23.5-0.18-6.32-0.32-0.93-0.32 12z"/>
		<path id="Path 9" class="s9" d="m354.48 513.5c0 67.1 0.12 94.33 0.27 60.5 0.15-33.83 0.15-88.73 0-122-0.15-33.27-0.27-5.6-0.27 61.5zm-0.11 132c0 5.5 0.17 7.52 0.37 4.5 0.2-3.02 0.2-7.52-0.01-10-0.2-2.48-0.37 0-0.36 5.5zm-0.04 35c0 3.85 0.18 5.2 0.4 3 0.21-2.2 0.21-5.35-0.01-7-0.22-1.65-0.4 0.15-0.39 4z"/>
		<path id="Path 10" class="s10" d="m413.34 282c0 4.13 0.17 5.93 0.39 4 0.21-1.93 0.21-5.3 0-7.5-0.22-2.2-0.39-0.63-0.39 3.5z"/>
		<path id="Path 11" class="s1" d="m454.36 399c0 5.23 0.17 7.25 0.38 4.5 0.2-2.75 0.2-7.02 0-9.5-0.21-2.48-0.38-0.23-0.38 5zm-71.94 44c0 10.73 0.15 15.23 0.33 10 0.18-5.23 0.18-14 0-19.5-0.18-5.5-0.33-1.23-0.33 9.5zm-0.01 81c0 9.08 0.15 12.67 0.33 8 0.19-4.67 0.19-12.1 0-16.5-0.18-4.4-0.33-0.58-0.33 8.5zm344.97 25.5c0 6.6 0.17 9.08 0.36 5.5 0.2-3.58 0.19-8.98 0-12-0.2-3.02-0.36-0.1-0.36 6.5zm-273.04 9.5c0 4.13 0.17 5.92 0.39 4 0.21-1.92 0.21-5.3 0-7.5-0.22-2.2-0.39-0.63-0.39 3.5zm88.06 39.5c0 8.25 0.16 11.4 0.34 7 0.19-4.4 0.19-11.15 0-15-0.19-3.85-0.34-0.25-0.34 8zm-160.06 10c0.01 4.4 0.18 5.98 0.39 3.5 0.21-2.48 0.21-6.08 0-8-0.22-1.92-0.39 0.1-0.39 4.5zm345.03 21c0 5.5 0.17 7.52 0.37 4.5 0.2-3.02 0.2-7.52-0.01-10-0.2-2.48-0.37 0-0.36 5.5zm-344.97 43c0.01 8.8 0.16 12.17 0.34 7.5 0.19-4.67 0.19-11.88 0-16-0.18-4.13-0.34-0.3-0.34 8.5zm-0.01 91.5c0 7.42 0.16 10.35 0.35 6.5 0.19-3.85 0.19-9.92 0-13.5-0.19-3.58-0.35-0.42-0.35 7zm-98.98 11c0 9.63 0.15 13.45 0.33 8.5 0.19-4.95 0.19-12.83 0-17.5-0.18-4.67-0.33-0.63-0.33 9zm98.93 17c0 4.13 0.17 5.92 0.39 4 0.21-1.92 0.21-5.3 0-7.5-0.22-2.2-0.39-0.63-0.39 3.5zm0.01 16.5c0 4.95 0.17 7.2 0.38 5 0.21-2.2 0.21-6.25 0.01-9-0.21-2.75-0.38-0.95-0.39 4zm23.99 0c0.01 4.4 0.18 5.98 0.39 3.5 0.21-2.48 0.21-6.08 0-8-0.22-1.92-0.39 0.1-0.39 4.5z"/>
		<path id="Path 12" class="s2" d="m454.36 417c0 5.23 0.17 7.25 0.38 4.5 0.2-2.75 0.2-7.02 0-9.5-0.21-2.48-0.38-0.23-0.38 5zm88.02 36.5c0 6.6 0.17 9.07 0.36 5.5 0.2-3.57 0.19-8.98 0-12-0.2-3.02-0.36-0.1-0.36 6.5zm0 70c0 6.6 0.17 9.08 0.36 5.5 0.2-3.58 0.19-8.98 0-12-0.2-3.02-0.36-0.1-0.36 6.5zm145.96 26c0.01 4.4 0.18 5.98 0.39 3.5 0.21-2.48 0.21-6.08 0-8-0.22-1.92-0.39 0.1-0.39 4.5zm-234.35 26.7c-0.27 5.89-0.15 10.39 0.27 10 0.42-0.38 0.64-5.2 0.49-10.7l-0.26-10zm0.38 77.3c0 6.05 0.16 8.3 0.36 5 0.2-3.3 0.2-8.25 0-11-0.2-2.75-0.36-0.05-0.36 6zm0.02 77c0.01 8.25 0.16 11.4 0.35 7 0.19-4.4 0.18-11.15 0-15-0.19-3.85-0.35-0.25-0.35 8zm0 33c0 7.7 0.16 10.62 0.35 6.5 0.19-4.13 0.19-10.43-0.01-14-0.19-3.58-0.34-0.2-0.34 7.5z"/>
		<path id="Path 13" class="s3" d="m430.38 418.5c0 6.6 0.17 9.07 0.36 5.5 0.2-3.57 0.19-8.98 0-12-0.2-3.02-0.36-0.1-0.36 6.5zm23.97 54c0 4.95 0.17 7.2 0.38 5 0.21-2.2 0.21-6.25 0.01-9-0.21-2.75-0.38-0.95-0.39 4zm-24.01 14.5c0 4.13 0.17 5.93 0.39 4 0.21-1.93 0.21-5.3 0-7.5-0.22-2.2-0.39-0.63-0.39 3.5zm0.02 17c0 5.23 0.17 7.25 0.38 4.5 0.2-2.75 0.2-7.02 0-9.5-0.21-2.48-0.38-0.23-0.38 5zm-0.02 63c0 4.13 0.17 5.92 0.39 4 0.21-1.92 0.21-5.3 0-7.5-0.22-2.2-0.39-0.63-0.39 3.5zm296.65 4.7c-0.27 6.17-0.15 10.89 0.27 10.5 0.42-0.38 0.64-5.43 0.49-11.2l-0.26-10.5zm-344.66 22.3c0 4.12 0.18 5.92 0.39 4 0.22-1.93 0.22-5.3 0-7.5-0.21-2.2-0.39-0.63-0.39 3.5zm-98.94 20.5c0.01 8.25 0.16 11.4 0.35 7 0.19-4.4 0.18-11.15 0-15-0.19-3.85-0.35-0.25-0.35 8zm443.99 37c0 7.15 0.16 9.85 0.36 6 0.19-3.85 0.19-9.7-0.01-13-0.19-3.3-0.35-0.15-0.35 7zm-444.06 46c0.01 3.85 0.19 5.2 0.4 3 0.22-2.2 0.21-5.35-0.01-7-0.22-1.65-0.39 0.15-0.39 4zm443.46 27.5c-0.16 12.1 0.05 22 0.46 22 0.42 0 0.75-9.9 0.75-22 0-12.1-0.2-22-0.46-22-0.25 0-0.59 9.9-0.75 22z"/>
		<path id="Path 14" class="s4" d="m542.39 371c0 6.88 0.16 9.57 0.35 6 0.2-3.57 0.2-9.2 0-12.5-0.19-3.3-0.35-0.38-0.35 6.5zm165.04 178c0 12.38 0.14 17.33 0.32 11 0.17-6.33 0.17-16.45 0-22.5-0.18-6.05-0.32-0.88-0.32 11.5zm-403.43 65.2c-0.28 10.29-0.16 18.39 0.25 18 0.41-0.38 0.64-8.8 0.5-18.7l-0.25-18zm403.23 16.05l0.23 23.25c0.11-42.47 0.32-45.49 1.58-44.81 1.02 0.55 1.23 0.41 0.71-0.45-0.41-0.68-1.2-1.24-1.75-1.24-0.65 0-0.92 8.26-0.77 23.25zm-18.83-3.25c0 9.07 0.16 12.67 0.34 8 0.19-4.68 0.19-12.1 0-16.5-0.18-4.4-0.34-0.58-0.34 8.5zm-383.98 55.5c0 11 0.14 15.72 0.32 10.5 0.18-5.23 0.18-14.23 0-20-0.17-5.78-0.32-1.5-0.32 9.5zm384 18.5c0 10.72 0.14 15.22 0.32 10 0.18-5.23 0.18-14 0-19.5-0.18-5.5-0.32-1.23-0.32 9.5zm19.01 14c0 12.37 0.14 17.32 0.31 11 0.18-6.33 0.18-16.45 0-22.5-0.17-6.05-0.31-0.88-0.31 11.5zm-277.05 16.5c0 6.6 0.16 9.07 0.36 5.5 0.19-3.58 0.19-8.98 0-12-0.2-3.03-0.36-0.1-0.36 6.5zm-125.95 34.5c0 12.37 0.14 17.32 0.31 11 0.18-6.33 0.18-16.45 0-22.5-0.17-6.05-0.31-0.88-0.31 11.5z"/>
		<path id="Path 15" class="s5" d="m406.4 426c0 7.98 0.15 11.35 0.34 7.5 0.19-3.85 0.19-10.38 0-14.5-0.19-4.13-0.34-0.98-0.34 7zm-0.06 158.5c0.01 4.4 0.18 5.98 0.39 3.5 0.21-2.48 0.21-6.08 0-8-0.22-1.92-0.39 0.1-0.39 4.5z"/>
		<path id="Path 16" class="s6" d="m436 818.73c1.93 0.21 5.3 0.21 7.5 0 2.2-0.22 0.63-0.39-3.5-0.39-4.13 0-5.93 0.17-4 0.39z"/>
		<path id="Path 17" class="s7" d="m586.39 402.5c0.01 7.7 0.16 10.63 0.35 6.5 0.19-4.13 0.19-10.43 0-14-0.19-3.57-0.35-0.2-0.35 7.5zm-0.05 144c0.01 4.4 0.18 5.98 0.39 3.5 0.21-2.48 0.21-6.08 0-8-0.22-1.92-0.39 0.1-0.39 4.5zm0.03 67c0 5.5 0.17 7.52 0.37 4.5 0.2-3.02 0.2-7.52-0.01-10-0.2-2.48-0.37 0-0.36 5.5zm-0.04 73c0 3.85 0.18 5.2 0.4 3 0.21-2.2 0.21-5.35-0.01-7-0.22-1.65-0.4 0.15-0.39 4zm-191.83 132.22c1.65 0.22 4.8 0.22 7 0.01 2.2-0.22 0.85-0.4-3-0.4-3.85-0.01-5.65 0.17-4 0.39z"/>
		<path id="Path 18" class="s8" d="m666.42 530.5c0 11.55 0.15 16.05 0.33 10 0.17-6.05 0.17-15.5 0-21-0.18-5.5-0.33-0.55-0.33 11zm-0.02 85.5c0 7.98 0.15 11.35 0.34 7.5 0.19-3.85 0.19-10.38 0-14.5-0.19-4.13-0.34-0.98-0.34 7zm0.02 82.5c0 10.45 0.15 14.5 0.33 9 0.18-5.5 0.18-14.05-0.01-19-0.18-4.95-0.32-0.45-0.32 10z"/>
		<path id="Path 19" class="s11" d="m587.34 394c0 4.13 0.17 5.93 0.39 4 0.21-1.93 0.21-5.3 0-7.5-0.22-2.2-0.39-0.63-0.39 3.5zm0.07 78.5c0 9.35 0.15 13.4 0.33 9 0.19-4.4 0.19-12.05 0.01-17-0.19-4.95-0.34-1.35-0.34 8z"/>
		<path id="Path 20" class="s12" d="m586.41 473c0 9.63 0.15 13.45 0.33 8.5 0.19-4.95 0.19-12.82 0-17.5-0.18-4.68-0.33-0.63-0.33 9zm81.02 54.5c0 12.1 0.14 16.83 0.32 10.5 0.17-6.33 0.17-16.23 0-22-0.18-5.77-0.32-0.6-0.32 11.5zm-0.05 74c0 6.6 0.17 9.08 0.36 5.5 0.2-3.58 0.19-8.98 0-12-0.2-3.02-0.36-0.1-0.36 6.5zm-0.04 20c0.01 4.4 0.18 5.98 0.39 3.5 0.21-2.48 0.21-6.08 0-8-0.22-1.92-0.39 0.1-0.39 4.5zm0.09 72c0 12.65 0.14 17.6 0.32 11 0.17-6.6 0.17-16.95 0-23-0.18-6.05-0.32-0.65-0.32 12z"/>
	</g>
</svg>